<svg width="2000" height="2000" viewBox="0 0 2000 2000" fill="none" xmlns="http://www.w3.org/2000/svg">
<path fill-rule="evenodd" clip-rule="evenodd" d="M1267.64 1101.06C1284.68 1062.44 1294.2 1019.46 1294.2 1000.11C1294.2 832.457 1163.94 696.521 1003.29 696.521C842.636 696.521 712.38 832.457 712.38 1000.11C712.38 1167.76 857.836 1277.76 1003.29 1277.76C1096.33 1277.76 1179.14 1232.25 1232.26 1161.39C1246.19 1142.86 1258.12 1122.63 1267.64 1101.06ZM1003.29 1125.96C1039.65 1125.96 1072.89 1112.03 1098.46 1088.98C1129.29 1061.19 1142.86 1020.05 1142.86 1000.11C1142.86 916.286 1083.69 848.314 1003.29 848.314C922.893 848.314 857.143 916.171 857.143 1000C857.143 1057.89 922.893 1125.96 1003.29 1125.96Z" fill="url(#paint0_linear_648_5)"/>
<path fill-rule="evenodd" clip-rule="evenodd" d="M78.0085 1019.46C79.1449 1020.94 76.8721 1018.05 78.0085 1019.46C69.1171 1007.29 69.3408 992.829 78.0485 980.522C78.6863 979.622 79.3363 978.686 79.9949 977.729C341.5 595.942 665.789 392.857 1001.01 392.857C1335.89 392.857 1659.89 595.396 1921.11 976.415C1926.07 983.643 1928.57 991.072 1928.57 999.965C1928.57 1009.29 1925.66 1017.14 1920.45 1024.72C1659.3 1405.01 1335.59 1607.14 1001.01 1607.14C664.937 1607.14 339.798 1403.09 78.0085 1019.46ZM281.363 953.75C259.864 980.479 259.864 1019.44 281.363 1046.18C505.298 1324.59 757.443 1455.35 1001.01 1455.35C1244.59 1455.35 1496.74 1324.59 1720.67 1046.18C1742.17 1019.44 1742.17 980.479 1720.67 953.75C1496.74 675.34 1244.59 544.652 1001.01 544.652C757.443 544.652 505.298 675.34 281.363 953.75Z" fill="url(#paint1_linear_648_5)"/>
<defs>
<linearGradient id="paint0_linear_648_5" x1="20.0002" y1="987.5" x2="1992.5" y2="987.5" gradientUnits="userSpaceOnUse">
<stop stop-color="#FC540C"/>
<stop offset="1" stop-color="#39D3E7"/>
</linearGradient>
<linearGradient id="paint1_linear_648_5" x1="71.4285" y1="1000" x2="1928.57" y2="1000" gradientUnits="userSpaceOnUse">
<stop stop-color="#FC540C"/>
<stop offset="1" stop-color="#39D3E7"/>
</linearGradient>
</defs>
</svg>
