<svg width="2000" height="2000" viewBox="0 0 2000 2000" fill="none" xmlns="http://www.w3.org/2000/svg">
<path fill-rule="evenodd" clip-rule="evenodd" d="M1620.91 110.727C1593.59 94.7332 1558.64 104.225 1542.86 131.927L1368.09 438.84C1249.03 383.108 1125.78 354.612 1001.01 354.612C665.789 354.612 341.5 560.46 79.995 947.436L78.9579 948.958L78.0507 950.272C69.3402 962.743 69.1178 977.408 78.0072 989.736C270.974 1276.36 498.361 1464.09 739.171 1542.99L599.954 1787.3C584.171 1815.01 593.536 1850.43 620.867 1866.42L645.612 1880.9C672.943 1896.89 707.89 1887.41 723.671 1859.7L1666.57 204.327C1682.36 176.625 1672.99 141.203 1645.66 125.208L1620.91 110.727ZM1292.29 571.932C1195.38 529.267 1097.53 508.472 1001.01 508.472C757.443 508.472 505.297 640.937 281.363 923.136C259.866 950.229 259.866 989.722 281.363 1016.81C449.223 1228.36 632.93 1355.79 817 1406.36L913.25 1237.37C803.3 1202.3 712.381 1104.48 712.381 970.129C712.381 800.186 842.636 662.406 1003.29 662.406C1077.44 662.406 1145.12 691.763 1196.51 740.086L1292.29 571.932ZM1117.07 879.55C1092.33 841.193 1051.65 816.265 1003.29 816.265C922.893 816.265 857.143 885.043 857.143 970.015C857.143 1026.17 917.371 1091.79 993.029 1097.31L1117.07 879.55Z" fill="url(#paint0_linear_648_2)"/>
<path d="M1049.09 1584.01C1366.51 1565.34 1671.83 1362.05 1920.46 995.072C1925.66 987.386 1928.57 979.436 1928.57 969.979C1928.57 960.964 1926.07 953.436 1921.11 946.107C1825.56 804.836 1721.61 687.775 1611.8 596.112L1536.14 728.943C1599.19 783.236 1660.94 847.857 1720.67 923.136C1742.17 950.229 1742.17 989.722 1720.67 1016.81C1540.54 1243.82 1342.16 1373.98 1144.67 1416.21L1049.09 1584.01Z" fill="url(#paint1_linear_648_2)"/>
<defs>
<linearGradient id="paint0_linear_648_2" x1="71.4286" y1="995.814" x2="1674.24" y2="995.814" gradientUnits="userSpaceOnUse">
<stop stop-color="#FC540C"/>
<stop offset="1" stop-color="#39D3E7"/>
</linearGradient>
<linearGradient id="paint1_linear_648_2" x1="29.9999" y1="1585" x2="1927.5" y2="1585" gradientUnits="userSpaceOnUse">
<stop stop-color="#FC540C"/>
<stop offset="1" stop-color="#39D3E7"/>
</linearGradient>
</defs>
</svg>
